<svg xmlns="http://www.w3.org/2000/svg" xmlns:xlink="http://www.w3.org/1999/xlink" width="500" zoomAndPan="magnify" viewBox="0 0 375 187.499995" height="250" preserveAspectRatio="xMidYMid meet" version="1.0"><defs><g/><clipPath id="04280cc3ef"><path d="M 0.5 0 L 374.5 0 L 374.5 187 L 0.5 187 Z M 0.5 0 " clip-rule="nonzero"/></clipPath><clipPath id="50d709fa54"><path d="M 281 0 C 332.640625 0 374.5 41.863281 374.5 93.5 C 374.5 145.140625 332.640625 187 281 187 L 94 187 C 42.359375 187 0.5 145.140625 0.5 93.5 C 0.5 41.863281 42.359375 0 94 0 Z M 281 0 " clip-rule="nonzero"/></clipPath></defs><g clip-path="url(#04280cc3ef)"><g clip-path="url(#50d709fa54)"><path fill="#0097b2" d="M 0.5 0 L 374.5 0 L 374.5 187 L 0.5 187 Z M 0.5 0 " fill-opacity="1" fill-rule="nonzero"/></g></g><g fill="#f9f7f3" fill-opacity="1"><g transform="translate(49.870916, 105.468743)"><g><path d="M 8.9375 -11.488281 L 12.804688 -22.578125 L 16.59375 -11.488281 Z M 14.359375 -31.914062 L 11.167969 -31.914062 L 0 0 L 4.988281 0 L 7.5 -7.179688 L 18.03125 -7.179688 L 20.542969 0 L 25.53125 0 Z M 14.359375 -31.914062 "/></g></g></g><g fill="#f9f7f3" fill-opacity="1"><g transform="translate(83.379012, 105.468743)"><g><path d="M 19.148438 -9.054688 C 19.148438 -6.421875 17.035156 -4.308594 14.402344 -4.308594 L 7.976562 -4.308594 L 7.976562 -13.800781 L 14.402344 -13.800781 C 17.035156 -13.800781 19.148438 -11.6875 19.148438 -9.054688 Z M 18.351562 -22.859375 C 18.351562 -20.226562 16.234375 -18.109375 13.601562 -18.109375 L 7.976562 -18.109375 L 7.976562 -27.605469 L 13.601562 -27.605469 C 16.234375 -27.605469 18.351562 -25.492188 18.351562 -22.859375 Z M 23.933594 -9.054688 C 23.933594 -12.007812 21.941406 -15.4375 18.988281 -16.234375 C 21.859375 -17.550781 23.136719 -20.304688 23.136719 -22.859375 C 23.136719 -27.84375 19.066406 -31.914062 14.082031 -31.914062 L 3.191406 -31.914062 L 3.191406 0 L 14.878906 0 C 19.867188 0 23.933594 -4.070312 23.933594 -9.054688 Z M 23.933594 -9.054688 "/></g></g></g><g fill="#f9f7f3" fill-opacity="1"><g transform="translate(117.6849, 105.468743)"><g><path d="M 27.125 -15.957031 C 27.125 -9.574219 22.5 -3.910156 16.753906 -3.910156 C 11.011719 -3.910156 6.382812 -9.574219 6.382812 -15.957031 C 6.382812 -22.339844 11.011719 -28.003906 16.753906 -28.003906 C 22.5 -28.003906 27.125 -22.339844 27.125 -15.957031 Z M 31.914062 -15.957031 C 31.914062 -25.011719 25.132812 -32.3125 16.753906 -32.3125 C 8.378906 -32.3125 1.59375 -25.011719 1.59375 -15.957031 C 1.59375 -6.902344 8.378906 0.398438 16.753906 0.398438 C 25.132812 0.398438 31.914062 -6.902344 31.914062 -15.957031 Z M 31.914062 -15.957031 "/></g></g></g><g fill="#f9f7f3" fill-opacity="1"><g transform="translate(159.170926, 105.468743)"><g><path d="M 19.148438 -23.136719 C 19.148438 -20.664062 17.152344 -18.667969 14.679688 -18.667969 L 7.976562 -18.667969 L 7.976562 -27.605469 L 14.679688 -27.605469 C 17.152344 -27.605469 19.148438 -25.609375 19.148438 -23.136719 Z M 18.828125 -15.160156 C 21.859375 -16.554688 23.933594 -19.585938 23.933594 -23.136719 C 23.933594 -28.003906 19.625 -31.914062 14.757812 -31.914062 L 3.191406 -31.914062 L 3.191406 0 L 7.976562 0 L 7.976562 -14.359375 L 13.960938 -14.359375 L 21.140625 0 L 26.328125 0 Z M 18.828125 -15.160156 "/></g></g></g><g fill="#f9f7f3" fill-opacity="1"><g transform="translate(195.870197, 105.468743)"><g><path d="M 27.125 -31.914062 L 1.59375 -31.914062 L 1.59375 -27.605469 L 11.96875 -27.605469 L 11.96875 0 L 16.753906 0 L 16.753906 -27.605469 L 27.125 -27.605469 Z M 27.125 -31.914062 "/></g></g></g><g fill="#f9f7f3" fill-opacity="1"><g transform="translate(232.569468, 105.468743)"><g><path d="M 8.777344 -31.914062 L 3.988281 -31.914062 L 3.988281 0 L 8.777344 0 Z M 8.777344 -31.914062 "/></g></g></g><g fill="#f9f7f3" fill-opacity="1"><g transform="translate(253.312872, 105.468743)"><g><path d="M 27.125 -15.957031 C 27.125 -9.574219 22.5 -3.910156 16.753906 -3.910156 C 11.011719 -3.910156 6.382812 -9.574219 6.382812 -15.957031 C 6.382812 -22.339844 11.011719 -28.003906 16.753906 -28.003906 C 22.5 -28.003906 27.125 -22.339844 27.125 -15.957031 Z M 31.914062 -15.957031 C 31.914062 -25.011719 25.132812 -32.3125 16.753906 -32.3125 C 8.378906 -32.3125 1.59375 -25.011719 1.59375 -15.957031 C 1.59375 -6.902344 8.378906 0.398438 16.753906 0.398438 C 25.132812 0.398438 31.914062 -6.902344 31.914062 -15.957031 Z M 31.914062 -15.957031 "/></g></g></g><g fill="#f9f7f3" fill-opacity="1"><g transform="translate(294.798904, 105.468743)"><g><path d="M 27.125 -31.914062 L 22.339844 -31.914062 L 22.339844 -9.972656 L 6.382812 -31.914062 L 3.191406 -31.914062 L 3.191406 0 L 7.976562 0 L 7.976562 -21.941406 L 23.933594 0 L 27.125 0 Z M 27.125 -31.914062 "/></g></g></g></svg>