<svg xmlns="http://www.w3.org/2000/svg" xmlns:xlink="http://www.w3.org/1999/xlink" width="500" zoomAndPan="magnify" viewBox="0 0 375 374.999991" height="500" preserveAspectRatio="xMidYMid meet" version="1.0"><defs><g/><clipPath id="96f3e33b40"><path d="M 101.613281 37.5 L 273.363281 37.5 L 273.363281 204.75 L 101.613281 204.75 Z M 101.613281 37.5 " clip-rule="nonzero"/></clipPath></defs><rect x="-37.5" width="450" fill="#ffffff" y="-37.499999" height="449.999989" fill-opacity="1"/><rect x="-37.5" width="450" fill="#0097b2" y="-37.499999" height="449.999989" fill-opacity="1"/><g fill="#f9f7f3" fill-opacity="1"><g transform="translate(71.043138, 280.082118)"><g><path d="M 30.617188 -27.714844 C 34.128906 -28.628906 39.320312 -31.378906 39.320312 -37.640625 C 39.320312 -46.039062 30.460938 -48.25 23.972656 -48.25 L 2.214844 -48.25 C 1.449219 -48.25 1.375 -47.105469 2.136719 -46.953125 C 4.734375 -46.496094 6.949219 -47.183594 6.949219 -43.136719 C 6.949219 -30.617188 6.949219 -18.019531 6.949219 -5.421875 C 6.949219 -1.449219 4.734375 -2.0625 2.136719 -1.601562 C 1.375 -1.527344 1.449219 -0.382812 2.214844 -0.382812 L 26.035156 -0.382812 C 36.953125 -0.382812 44.96875 -5.648438 44.96875 -14.277344 C 44.96875 -22.902344 38.480469 -26.722656 30.617188 -27.714844 Z M 22.675781 -2.0625 L 16.109375 -2.0625 C 14.199219 -2.0625 12.597656 -2.597656 12.597656 -5.269531 L 12.519531 -4.582031 C 12.519531 -17.710938 12.519531 -30.84375 12.519531 -43.976562 L 12.597656 -43.289062 C 12.597656 -45.960938 14.125 -46.496094 16.03125 -46.496094 C 17.941406 -46.496094 19.621094 -46.496094 22.066406 -46.496094 C 29.089844 -46.496094 34.28125 -43.59375 34.28125 -37.410156 C 34.28125 -32.371094 29.316406 -27.941406 22.902344 -27.941406 C 20.308594 -27.941406 19.390625 -27.867188 16.71875 -28.171875 C 14.8125 -28.402344 14.964844 -25.882812 16.644531 -26.035156 C 19.316406 -26.339844 20.386719 -26.261719 23.132812 -26.261719 C 32.90625 -26.261719 39.394531 -22.066406 39.394531 -14.199219 C 39.394531 -7.023438 32.675781 -2.0625 22.675781 -2.0625 Z M 22.675781 -2.0625 "/></g></g></g><g fill="#f9f7f3" fill-opacity="1"><g transform="translate(121.350042, 280.082118)"><g><path d="M 17.332031 -1.601562 C 14.734375 -2.0625 12.519531 -1.449219 12.519531 -5.421875 L 12.519531 -43.136719 C 12.519531 -47.183594 14.734375 -46.496094 17.332031 -46.953125 C 18.09375 -47.105469 18.019531 -48.25 17.253906 -48.25 L 2.214844 -48.25 C 1.375 -48.25 1.375 -47.105469 2.136719 -46.953125 C 4.65625 -46.496094 6.871094 -47.183594 6.871094 -43.136719 L 6.871094 -5.421875 C 6.871094 -1.449219 4.65625 -2.0625 2.136719 -1.601562 C 1.375 -1.527344 1.375 -0.382812 2.214844 -0.382812 L 17.253906 -0.382812 C 18.019531 -0.382812 18.09375 -1.527344 17.332031 -1.601562 Z M 17.332031 -1.601562 "/></g></g></g><g fill="#f9f7f3" fill-opacity="1"><g transform="translate(144.633563, 280.082118)"><g><path d="M 46.113281 -16.871094 C 44.738281 -16.871094 43.671875 -15.957031 43.671875 -14.507812 C 43.671875 -12.828125 45.121094 -11.832031 46.496094 -10.230469 C 48.785156 -7.710938 46.726562 -3.28125 42.601562 -3.28125 C 35.5 -3.28125 33.59375 -13.894531 25.652344 -15.878906 C 35.195312 -16.71875 45.046875 -21.300781 45.046875 -31.988281 C 45.046875 -42.527344 35.273438 -47.945312 24.355469 -47.945312 L 2.214844 -47.945312 C 1.375 -47.945312 1.375 -46.800781 2.136719 -46.648438 C 4.65625 -46.265625 6.949219 -46.878906 6.949219 -42.832031 L 6.949219 -5.039062 C 6.949219 -0.992188 4.65625 -1.601562 2.136719 -1.222656 C 1.375 -1.070312 1.375 0.078125 2.214844 0.078125 L 17.332031 0.078125 C 18.09375 0.078125 18.09375 -1.070312 17.40625 -1.222656 C 14.8125 -1.601562 12.597656 -0.992188 12.597656 -5.039062 L 12.597656 -42.984375 C 12.597656 -45.65625 14.199219 -46.191406 16.109375 -46.191406 L 15.878906 -46.265625 C 16.339844 -46.265625 16.949219 -46.265625 18.398438 -46.265625 C 30.84375 -46.265625 38.554688 -41.6875 38.554688 -31.914062 C 38.554688 -22.140625 29.699219 -17.027344 18.398438 -17.027344 C 17.179688 -17.027344 17.710938 -17.101562 16.566406 -17.253906 C 15.269531 -17.40625 15.269531 -15.652344 16.644531 -15.726562 C 26.492188 -15.347656 29.851562 0.6875 40.082031 0.6875 C 46.726562 0.6875 49.246094 -4.65625 49.320312 -10 C 49.398438 -12.292969 49.472656 -16.871094 46.113281 -16.871094 Z M 46.113281 -16.871094 "/></g></g></g><g fill="#f9f7f3" fill-opacity="1"><g transform="translate(199.368024, 280.082118)"><g><path d="M 44.96875 -47.566406 C 44.96875 -47.871094 44.738281 -47.945312 44.433594 -47.945312 L 2.519531 -47.945312 C 2.214844 -47.945312 1.984375 -47.871094 1.984375 -47.566406 L 1.601562 -38.707031 C 1.527344 -38.019531 2.75 -37.945312 2.902344 -38.632812 C 4.046875 -44.96875 3.894531 -46.191406 12.671875 -46.191406 L 17.253906 -46.191406 C 19.085938 -46.191406 20.613281 -45.65625 20.613281 -42.984375 L 20.613281 -5.039062 C 20.613281 -0.992188 18.398438 -1.601562 15.804688 -1.222656 C 15.117188 -1.070312 15.117188 0.078125 15.957031 0.078125 L 30.996094 0.078125 C 31.835938 0.078125 31.835938 -1.070312 31.074219 -1.222656 C 28.554688 -1.601562 26.261719 -0.992188 26.261719 -5.039062 L 26.261719 -42.984375 C 26.261719 -45.65625 27.789062 -46.191406 29.699219 -46.191406 L 34.28125 -46.191406 C 43.058594 -46.191406 42.90625 -44.96875 44.050781 -38.632812 C 44.207031 -37.945312 45.425781 -38.019531 45.351562 -38.707031 Z M 44.96875 -47.566406 "/></g></g></g><g fill="#f9f7f3" fill-opacity="1"><g transform="translate(250.132941, 280.082118)"><g><path d="M 51.6875 -1.601562 C 49.089844 -2.0625 46.878906 -1.449219 46.878906 -5.421875 L 46.878906 -43.136719 C 46.878906 -47.183594 49.089844 -46.496094 51.6875 -46.953125 C 52.449219 -47.105469 52.375 -48.25 51.609375 -48.25 L 36.570312 -48.25 C 35.730469 -48.25 35.730469 -47.105469 36.496094 -46.953125 C 39.011719 -46.496094 41.226562 -47.183594 41.226562 -43.136719 L 41.226562 -26.109375 L 12.519531 -26.109375 L 12.519531 -43.136719 C 12.519531 -47.183594 14.734375 -46.496094 17.332031 -46.953125 C 18.09375 -47.105469 18.019531 -48.25 17.253906 -48.25 L 2.214844 -48.25 C 1.375 -48.25 1.375 -47.105469 2.136719 -46.953125 C 4.65625 -46.496094 6.871094 -47.183594 6.871094 -43.136719 L 6.871094 -5.421875 C 6.871094 -1.449219 4.65625 -2.0625 2.136719 -1.601562 C 1.375 -1.527344 1.375 -0.382812 2.214844 -0.382812 L 17.253906 -0.382812 C 18.019531 -0.382812 18.09375 -1.527344 17.332031 -1.601562 C 14.734375 -2.0625 12.519531 -1.449219 12.519531 -5.421875 L 12.519531 -24.355469 L 41.226562 -24.355469 L 41.226562 -5.421875 C 41.226562 -1.449219 39.011719 -2.0625 36.496094 -1.601562 C 35.730469 -1.527344 35.730469 -0.382812 36.570312 -0.382812 L 51.609375 -0.382812 C 52.375 -0.382812 52.449219 -1.527344 51.6875 -1.601562 Z M 51.6875 -1.601562 "/></g></g></g><g clip-path="url(#96f3e33b40)"><path fill="#ffb901" d="M 102.378906 124.636719 L 102.46875 124.640625 L 103.320312 123.792969 C 103.667969 100.753906 113.257812 80 128.539062 65.054688 C 143.730469 50.195312 164.558594 41.089844 187.476562 41.25 C 187.476562 41.25 188.234375 41.253906 188.234375 41.253906 C 210.417969 41.390625 230.464844 50.464844 244.957031 65.0625 C 259.382812 79.589844 268.296875 99.59375 268.277344 121.675781 L 268.277344 121.925781 L 268.195312 126.613281 C 267.871094 146.75 259.394531 164.820312 246.035156 177.863281 C 232.683594 190.898438 214.429688 198.933594 194.304688 198.777344 C 184.9375 198.738281 175.777344 196.8125 167.316406 193.242188 C 158.832031 189.660156 151.042969 184.425781 144.464844 177.726562 C 137.871094 171.007812 132.757812 163.105469 129.328125 154.53125 C 125.894531 145.929688 124.148438 136.652344 124.296875 127.210938 C 124.296875 127.210938 124.371094 122.507812 124.371094 122.507812 L 124.371094 122.511719 L 124.371094 122.445312 C 124.371094 122.402344 124.371094 122.308594 124.371094 122.171875 C 124.332031 105.449219 131.023438 90.269531 141.910156 79.214844 C 152.855469 68.097656 168.019531 61.148438 184.832031 60.925781 C 184.832031 60.925781 187.421875 60.894531 187.421875 60.894531 C 195.523438 60.804688 203.480469 62.328125 210.835938 65.332031 C 218.199219 68.335938 224.957031 72.820312 230.6875 78.558594 C 236.394531 84.320312 240.832031 91.097656 243.804688 98.472656 C 246.765625 105.832031 248.257812 113.78125 248.132812 121.871094 L 248.113281 122.65625 C 248.113281 122.65625 247.828125 129.546875 247.828125 129.546875 C 247.246094 143.4375 241.246094 155.867188 231.910156 164.824219 C 222.632812 173.71875 210.046875 179.171875 196.230469 179.171875 C 189.691406 179.171875 183.292969 177.839844 177.386719 175.339844 C 171.507812 172.851562 166.121094 169.183594 161.585938 164.503906 C 157.066406 159.835938 153.597656 154.351562 151.296875 148.414062 C 149.003906 142.492188 147.878906 136.121094 148.074219 129.648438 C 148.074219 129.648438 148.277344 122.75 148.277344 122.75 L 148.292969 121.898438 C 148.328125 111.0625 152.757812 101.28125 159.855469 94.167969 C 166.945312 87.058594 176.707031 82.601562 187.539062 82.539062 C 187.539062 82.539062 189.0625 82.527344 189.0625 82.527344 C 194.210938 82.484375 199.265625 83.472656 203.9375 85.382812 C 208.625 87.296875 212.933594 90.128906 216.585938 93.773438 C 220.25 97.421875 223.109375 101.722656 225.042969 106.410156 C 226.984375 111.105469 228.011719 116.179688 227.992188 121.363281 L 227.964844 122.589844 C 227.964844 122.589844 227.792969 126.605469 227.792969 126.605469 C 227.429688 134.992188 223.792969 142.488281 218.140625 147.878906 C 212.464844 153.296875 204.769531 156.601562 196.335938 156.5625 C 192.519531 156.546875 188.789062 155.757812 185.347656 154.277344 C 181.902344 152.796875 178.746094 150.636719 176.101562 147.871094 C 173.449219 145.09375 171.414062 141.84375 170.085938 138.320312 C 168.753906 134.792969 168.121094 130.996094 168.28125 127.148438 C 168.28125 127.148438 168.445312 123.136719 168.445312 123.136719 C 168.445312 123.136719 168.480469 121.71875 168.480469 121.71875 C 168.480469 121.71875 168.480469 121.691406 168.480469 121.691406 C 168.484375 119.289062 168.960938 116.933594 169.863281 114.757812 C 170.773438 112.578125 172.105469 110.570312 173.8125 108.871094 C 175.53125 107.167969 177.542969 105.835938 179.738281 104.933594 C 181.9375 104.03125 184.3125 103.554688 186.738281 103.5625 C 186.738281 103.5625 189.691406 103.578125 189.691406 103.578125 C 194.421875 103.59375 198.71875 105.488281 201.863281 108.558594 C 205.027344 111.648438 207.035156 115.921875 207.164062 120.679688 L 207.109375 123.929688 C 207.109375 123.929688 207.015625 125.410156 207.015625 125.410156 C 206.828125 128.3125 205.550781 130.902344 203.589844 132.785156 C 201.621094 134.683594 198.964844 135.863281 196.039062 135.933594 C 194.671875 135.964844 193.332031 135.707031 192.101562 135.1875 C 190.867188 134.667969 189.738281 133.894531 188.804688 132.890625 C 187.867188 131.886719 187.164062 130.707031 186.730469 129.433594 C 186.292969 128.160156 186.121094 126.792969 186.246094 125.417969 C 186.246094 125.417969 186.535156 122.285156 186.535156 122.285156 C 186.585938 121.765625 186.210938 121.304688 185.691406 121.253906 C 185.175781 121.203125 184.714844 121.582031 184.660156 122.097656 L 184.328125 125.226562 C 184.152344 126.875 184.332031 128.523438 184.835938 130.066406 C 185.339844 131.613281 186.171875 133.054688 187.289062 134.285156 C 188.410156 135.519531 189.769531 136.484375 191.265625 137.140625 C 192.765625 137.796875 194.402344 138.136719 196.074219 138.121094 C 199.585938 138.089844 202.789062 136.710938 205.1875 134.472656 C 207.59375 132.222656 209.183594 129.101562 209.457031 125.582031 C 209.457031 125.582031 209.574219 124.105469 209.574219 124.105469 L 209.6875 120.625 C 209.617188 115.160156 207.367188 110.222656 203.785156 106.617188 C 200.183594 102.996094 195.21875 100.738281 189.722656 100.636719 C 189.722656 100.636719 186.769531 100.582031 186.769531 100.582031 C 183.941406 100.53125 181.164062 101.050781 178.585938 102.066406 C 175.996094 103.085938 173.609375 104.613281 171.570312 106.585938 C 169.527344 108.558594 167.921875 110.90625 166.816406 113.464844 C 165.703125 116.027344 165.097656 118.8125 165.054688 121.660156 C 165.054688 121.660156 165.050781 121.6875 165.050781 121.6875 C 165.050781 121.6875 165.007812 122.96875 165.007812 122.96875 C 165.007812 122.96875 164.78125 126.976562 164.78125 126.976562 C 164.539062 131.308594 165.191406 135.59375 166.632812 139.597656 C 168.085938 143.605469 170.335938 147.324219 173.300781 150.511719 C 176.269531 153.707031 179.832031 156.226562 183.738281 157.964844 C 187.652344 159.710938 191.917969 160.660156 196.292969 160.730469 C 205.886719 160.882812 214.679688 157.214844 221.207031 151.128906 C 227.765625 145.019531 232.027344 136.460938 232.554688 126.839844 C 232.554688 126.839844 232.777344 122.824219 232.777344 122.824219 L 232.824219 121.410156 C 232.914062 115.570312 231.828125 109.835938 229.699219 104.515625 C 227.566406 99.1875 224.375 94.28125 220.269531 90.109375 C 216.152344 85.933594 211.28125 82.675781 205.976562 80.453125 C 200.664062 78.230469 194.914062 77.054688 189.042969 77.054688 C 189.042969 77.054688 187.515625 77.054688 187.515625 77.054688 C 175.160156 77.074219 163.953125 82.078125 155.871094 90.199219 C 147.792969 98.320312 142.84375 109.542969 142.882812 121.898438 L 142.878906 122.625 C 142.878906 122.625 142.757812 129.523438 142.757812 129.523438 C 142.632812 136.699219 143.949219 143.753906 146.585938 150.277344 C 149.21875 156.785156 153.144531 162.765625 158.210938 167.828125 C 163.257812 172.871094 169.214844 176.792969 175.699219 179.417969 C 182.167969 182.03125 189.148438 183.367188 196.265625 183.25 C 211.082031 183.007812 224.496094 176.972656 234.292969 167.265625 C 244.027344 157.621094 250.195312 144.363281 250.570312 129.636719 C 250.570312 129.636719 250.75 122.746094 250.75 122.746094 L 250.765625 121.890625 C 250.789062 113.46875 249.117188 105.222656 245.957031 97.59375 C 242.804688 89.976562 238.171875 82.96875 232.214844 77.039062 C 226.285156 71.085938 219.277344 66.46875 211.664062 63.316406 C 204.042969 60.164062 195.8125 58.484375 187.40625 58.503906 C 187.40625 58.503906 184.816406 58.503906 184.816406 58.503906 C 167.253906 58.507812 151.339844 65.605469 139.75 77.054688 C 128.097656 88.570312 120.824219 104.5 120.605469 122.152344 L 120.605469 122.425781 L 120.460938 127.121094 C 120.160156 137.101562 121.871094 146.933594 125.375 156.074219 C 128.886719 165.246094 134.210938 173.71875 141.125 180.960938 C 148.054688 188.226562 156.296875 193.949219 165.320312 197.890625 C 174.363281 201.839844 184.1875 203.988281 194.253906 204.136719 C 215.882812 204.386719 235.613281 195.890625 249.9375 181.855469 C 264.257812 167.832031 273.152344 148.296875 273.347656 126.675781 C 273.347656 126.675781 273.386719 121.980469 273.386719 121.980469 L 273.382812 121.980469 L 273.386719 121.90625 C 273.386719 121.867188 273.382812 121.78125 273.382812 121.652344 C 273.144531 98.269531 263.503906 77.167969 248.046875 61.957031 C 232.660156 46.816406 211.515625 37.515625 188.234375 37.652344 C 188.234375 37.652344 187.476562 37.65625 187.476562 37.65625 C 163.703125 37.828125 142.210938 47.535156 126.667969 63.171875 C 111.210938 78.726562 101.632812 100.136719 101.613281 123.777344 L 101.613281 123.789062 C 101.613281 124.230469 101.949219 124.59375 102.378906 124.636719 Z M 102.378906 124.636719 " fill-opacity="1" fill-rule="evenodd"/></g><g fill="#f9f7f3" fill-opacity="1"><g transform="translate(75.177856, 337.704343)"><g><path d="M 14.445312 -19.59375 C 7.566406 -21.066406 6.199219 -23.535156 6.199219 -26.160156 C 6.199219 -30.679688 10.507812 -32.464844 15.128906 -32.464844 C 17.019531 -32.464844 18.910156 -32.203125 20.59375 -31.675781 C 23.851562 -30.417969 23.21875 -28.734375 24.058594 -27.316406 C 24.480469 -26.582031 25.109375 -26.320312 25.636719 -26.320312 C 26.898438 -26.320312 27.894531 -27.84375 26.421875 -29.574219 C 25.949219 -30.152344 25.164062 -30.730469 24.269531 -31.308594 L 24.164062 -31.308594 C 23.273438 -31.835938 22.429688 -32.203125 21.695312 -32.414062 C 19.59375 -33.148438 17.230469 -33.566406 14.867188 -33.566406 C 8.617188 -33.566406 2.523438 -30.835938 2.523438 -24.324219 C 2.523438 -16.96875 11.820312 -16.179688 18.597656 -14.550781 C 30.835938 -11.664062 25.476562 -0.789062 15.285156 -0.523438 C 11.242188 -0.421875 5.777344 -2.101562 2.996094 -6.042969 C 2.679688 -6.460938 2.363281 -6.617188 2.046875 -6.617188 C 1.261719 -6.617188 0.628906 -5.621094 1.574219 -4.675781 C 5.9375 -0.683594 10.242188 0.628906 16.023438 0.628906 C 22.957031 0.628906 29.628906 -2.207031 29.628906 -9.089844 C 29.628906 -16.808594 21.117188 -18.230469 14.445312 -19.59375 Z M 14.445312 -19.59375 "/></g></g></g><g fill="#f9f7f3" fill-opacity="1"><g transform="translate(108.482372, 337.704343)"><g><path d="M 30.992188 -6.460938 C 29.101562 -3.730469 26.421875 -0.839844 19.175781 -0.839844 C 0.789062 -0.839844 1.207031 -32.570312 19.175781 -32.570312 C 20.90625 -32.570312 23.113281 -32.414062 24.796875 -31.835938 C 28.210938 -30.257812 27.632812 -28.523438 28.316406 -27.160156 C 28.894531 -26.054688 29.734375 -25.636719 30.46875 -25.636719 C 31.992188 -25.636719 33.304688 -27.527344 31.625 -29.523438 C 30.679688 -30.625 27.738281 -32.414062 26.265625 -32.726562 C 24.21875 -33.464844 21.851562 -33.9375 19.175781 -33.9375 C -4.9375 -33.9375 -4.9375 0.472656 19.175781 0.472656 C 25.53125 0.472656 29.628906 -1.945312 32.621094 -5.464844 C 33.359375 -6.304688 32.78125 -7.144531 32.042969 -7.144531 C 31.730469 -7.144531 31.308594 -6.933594 30.992188 -6.460938 Z M 30.992188 -6.460938 "/></g></g></g><g fill="#f9f7f3" fill-opacity="1"><g transform="translate(145.148811, 337.704343)"><g><path d="M 11.925781 -1.101562 C 10.140625 -1.417969 8.617188 -1 8.617188 -3.730469 L 8.617188 -29.679688 C 8.617188 -32.464844 10.140625 -31.992188 11.925781 -32.308594 C 12.449219 -32.414062 12.398438 -33.199219 11.871094 -33.199219 L 1.523438 -33.199219 C 0.945312 -33.199219 0.945312 -32.414062 1.472656 -32.308594 C 3.203125 -31.992188 4.726562 -32.464844 4.726562 -29.679688 L 4.726562 -3.730469 C 4.726562 -1 3.203125 -1.417969 1.472656 -1.101562 C 0.945312 -1.050781 0.945312 -0.261719 1.523438 -0.261719 L 11.871094 -0.261719 C 12.398438 -0.261719 12.449219 -1.050781 11.925781 -1.101562 Z M 11.925781 -1.101562 "/></g></g></g><g fill="#f9f7f3" fill-opacity="1"><g transform="translate(161.170934, 337.704343)"><g><path d="M 28 -6.042969 C 27.210938 -2.625 26.476562 -1.417969 21.011719 -1.417969 L 10.558594 -1.417969 C 9.457031 -1.523438 8.617188 -2.046875 8.617188 -3.625 L 8.617188 -15.390625 L 19.070312 -15.390625 C 22.328125 -15.390625 23.0625 -13.710938 23.167969 -12.082031 C 23.21875 -11.558594 24.058594 -11.609375 24.058594 -12.136719 L 24.058594 -19.804688 C 24.058594 -20.382812 23.21875 -20.382812 23.167969 -19.855469 C 23.0625 -18.28125 22.328125 -16.546875 19.070312 -16.546875 L 8.617188 -16.546875 L 8.617188 -29.785156 C 8.617188 -31.625 9.664062 -31.992188 10.980469 -31.992188 L 19.226562 -31.992188 C 24.691406 -31.992188 26.003906 -30.785156 26.792969 -27.371094 C 26.898438 -26.898438 27.738281 -27 27.738281 -27.421875 L 27.421875 -32.9375 C 27.421875 -33.09375 27.265625 -33.199219 27.054688 -33.199219 L 1.523438 -33.199219 C 0.945312 -33.199219 0.945312 -32.414062 1.472656 -32.308594 C 3.203125 -31.992188 4.726562 -32.464844 4.726562 -29.679688 L 4.726562 -3.730469 C 4.726562 -1 3.203125 -1.417969 1.472656 -1.101562 C 0.945312 -1.050781 0.945312 -0.261719 1.523438 -0.261719 L 28.261719 -0.261719 C 28.421875 -0.261719 28.628906 -0.316406 28.628906 -0.523438 L 28.894531 -5.988281 C 28.894531 -6.460938 28.105469 -6.515625 28 -6.042969 Z M 28 -6.042969 "/></g></g></g><g fill="#f9f7f3" fill-opacity="1"><g transform="translate(193.740033, 337.704343)"><g><path d="M 35.300781 -32.992188 L 26.214844 -32.992188 C 25.6875 -32.992188 25.636719 -32.203125 26.160156 -32.097656 C 27.894531 -31.835938 29.890625 -32.203125 30.046875 -29.734375 C 30.046875 -21.644531 30.046875 -13.710938 30.046875 -5.570312 C 30.046875 -4.886719 29.574219 -4.675781 29.15625 -5.304688 C 22.851562 -14.078125 16.546875 -22.851562 10.296875 -31.570312 C 9.5625 -32.570312 9.089844 -32.992188 7.511719 -32.992188 L 2.101562 -32.992188 C 1.574219 -32.992188 1.523438 -32.203125 2.046875 -32.097656 C 3.78125 -31.835938 5.253906 -32.203125 5.359375 -29.734375 L 5.09375 -3.625 C 5.09375 -0.789062 3.257812 -1.101562 1.472656 -0.839844 C 0.945312 -0.734375 0.945312 0.0507812 1.523438 0.0507812 L 10.613281 0.0507812 C 11.136719 0.0507812 11.1875 -0.734375 10.664062 -0.839844 C 8.878906 -1.101562 7.039062 -0.734375 7.039062 -3.46875 L 6.777344 -28.996094 L 27 -0.894531 C 27.472656 -0.261719 27.894531 0.0507812 28.839844 0.0507812 C 29.46875 0.0507812 30.101562 0.0507812 30.679688 0.0507812 C 31.203125 0.0507812 31.414062 -0.210938 31.414062 -0.734375 L 31.46875 -29.46875 C 31.46875 -32.253906 33.566406 -31.835938 35.355469 -32.097656 C 35.878906 -32.203125 35.878906 -32.992188 35.300781 -32.992188 Z M 35.300781 -32.992188 "/></g></g></g><g fill="#f9f7f3" fill-opacity="1"><g transform="translate(233.19056, 337.704343)"><g><path d="M 30.992188 -6.460938 C 29.101562 -3.730469 26.421875 -0.839844 19.175781 -0.839844 C 0.789062 -0.839844 1.207031 -32.570312 19.175781 -32.570312 C 20.90625 -32.570312 23.113281 -32.414062 24.796875 -31.835938 C 28.210938 -30.257812 27.632812 -28.523438 28.316406 -27.160156 C 28.894531 -26.054688 29.734375 -25.636719 30.46875 -25.636719 C 31.992188 -25.636719 33.304688 -27.527344 31.625 -29.523438 C 30.679688 -30.625 27.738281 -32.414062 26.265625 -32.726562 C 24.21875 -33.464844 21.851562 -33.9375 19.175781 -33.9375 C -4.9375 -33.9375 -4.9375 0.472656 19.175781 0.472656 C 25.53125 0.472656 29.628906 -1.945312 32.621094 -5.464844 C 33.359375 -6.304688 32.78125 -7.144531 32.042969 -7.144531 C 31.730469 -7.144531 31.308594 -6.933594 30.992188 -6.460938 Z M 30.992188 -6.460938 "/></g></g></g><g fill="#f9f7f3" fill-opacity="1"><g transform="translate(269.857002, 337.704343)"><g><path d="M 28 -6.042969 C 27.210938 -2.625 26.476562 -1.417969 21.011719 -1.417969 L 10.558594 -1.417969 C 9.457031 -1.523438 8.617188 -2.046875 8.617188 -3.625 L 8.617188 -15.390625 L 19.070312 -15.390625 C 22.328125 -15.390625 23.0625 -13.710938 23.167969 -12.082031 C 23.21875 -11.558594 24.058594 -11.609375 24.058594 -12.136719 L 24.058594 -19.804688 C 24.058594 -20.382812 23.21875 -20.382812 23.167969 -19.855469 C 23.0625 -18.28125 22.328125 -16.546875 19.070312 -16.546875 L 8.617188 -16.546875 L 8.617188 -29.785156 C 8.617188 -31.625 9.664062 -31.992188 10.980469 -31.992188 L 19.226562 -31.992188 C 24.691406 -31.992188 26.003906 -30.785156 26.792969 -27.371094 C 26.898438 -26.898438 27.738281 -27 27.738281 -27.421875 L 27.421875 -32.9375 C 27.421875 -33.09375 27.265625 -33.199219 27.054688 -33.199219 L 1.523438 -33.199219 C 0.945312 -33.199219 0.945312 -32.414062 1.472656 -32.308594 C 3.203125 -31.992188 4.726562 -32.464844 4.726562 -29.679688 L 4.726562 -3.730469 C 4.726562 -1 3.203125 -1.417969 1.472656 -1.101562 C 0.945312 -1.050781 0.945312 -0.261719 1.523438 -0.261719 L 28.261719 -0.261719 C 28.421875 -0.261719 28.628906 -0.316406 28.628906 -0.523438 L 28.894531 -5.988281 C 28.894531 -6.460938 28.105469 -6.515625 28 -6.042969 Z M 28 -6.042969 "/></g></g></g></svg>