<svg xmlns="http://www.w3.org/2000/svg" xmlns:xlink="http://www.w3.org/1999/xlink" width="500" zoomAndPan="magnify" viewBox="0 0 375 374.999991" height="500" preserveAspectRatio="xMidYMid meet" version="1.0"><defs><g/><clipPath id="fe513ad52b"><path d="M 72.699219 3 L 302.199219 3 L 302.199219 225.75 L 72.699219 225.75 Z M 72.699219 3 " clip-rule="nonzero"/></clipPath></defs><rect x="-37.5" width="450" fill="#ffffff" y="-37.499999" height="449.999989" fill-opacity="1"/><rect x="-37.5" width="450" fill="#0097b2" y="-37.499999" height="449.999989" fill-opacity="1"/><g fill="#f9f7f3" fill-opacity="1"><g transform="translate(31.836452, 310.44923)"><g><path d="M 40.921875 -37.042969 C 45.617188 -38.269531 52.554688 -41.941406 52.554688 -50.3125 C 52.554688 -61.535156 40.71875 -64.496094 32.042969 -64.496094 L 2.960938 -64.496094 C 1.9375 -64.496094 1.835938 -62.964844 2.859375 -62.761719 C 6.328125 -62.148438 9.285156 -63.066406 9.285156 -57.660156 C 9.285156 -40.921875 9.285156 -24.085938 9.285156 -7.246094 C 9.285156 -1.9375 6.328125 -2.753906 2.859375 -2.144531 C 1.835938 -2.042969 1.9375 -0.511719 2.960938 -0.511719 L 34.800781 -0.511719 C 49.394531 -0.511719 60.109375 -7.550781 60.109375 -19.082031 C 60.109375 -30.617188 51.433594 -35.71875 40.921875 -37.042969 Z M 30.308594 -2.753906 L 21.53125 -2.753906 C 18.980469 -2.753906 16.839844 -3.46875 16.839844 -7.042969 L 16.738281 -6.125 C 16.738281 -23.675781 16.738281 -41.230469 16.738281 -58.78125 L 16.839844 -57.863281 C 16.839844 -61.433594 18.878906 -62.148438 21.429688 -62.148438 C 23.980469 -62.148438 26.226562 -62.148438 29.492188 -62.148438 C 38.882812 -62.148438 45.820312 -58.269531 45.820312 -50.003906 C 45.820312 -43.269531 39.1875 -37.351562 30.617188 -37.351562 C 27.144531 -37.351562 25.921875 -37.25 22.347656 -37.65625 C 19.796875 -37.964844 20.003906 -34.59375 22.246094 -34.800781 C 25.820312 -35.207031 27.246094 -35.105469 30.921875 -35.105469 C 43.984375 -35.105469 52.660156 -29.492188 52.660156 -18.980469 C 52.660156 -9.390625 43.679688 -2.753906 30.308594 -2.753906 Z M 30.308594 -2.753906 "/></g></g></g><g fill="#f9f7f3" fill-opacity="1"><g transform="translate(99.079818, 310.44923)"><g><path d="M 23.164062 -2.144531 C 19.695312 -2.753906 16.738281 -1.9375 16.738281 -7.246094 L 16.738281 -57.660156 C 16.738281 -63.066406 19.695312 -62.148438 23.164062 -62.761719 C 24.1875 -62.964844 24.085938 -64.496094 23.0625 -64.496094 L 2.960938 -64.496094 C 1.835938 -64.496094 1.835938 -62.964844 2.859375 -62.761719 C 6.226562 -62.148438 9.183594 -63.066406 9.183594 -57.660156 L 9.183594 -7.246094 C 9.183594 -1.9375 6.226562 -2.753906 2.859375 -2.144531 C 1.835938 -2.042969 1.835938 -0.511719 2.960938 -0.511719 L 23.0625 -0.511719 C 24.085938 -0.511719 24.1875 -2.042969 23.164062 -2.144531 Z M 23.164062 -2.144531 "/></g></g></g><g fill="#f9f7f3" fill-opacity="1"><g transform="translate(130.202034, 310.44923)"><g><path d="M 61.640625 -22.554688 C 59.800781 -22.554688 58.375 -21.328125 58.375 -19.390625 C 58.375 -17.144531 60.3125 -15.816406 62.148438 -13.675781 C 65.210938 -10.308594 62.457031 -4.386719 56.945312 -4.386719 C 47.453125 -4.386719 44.902344 -18.574219 34.289062 -21.226562 C 47.046875 -22.347656 60.210938 -28.472656 60.210938 -42.757812 C 60.210938 -56.84375 47.148438 -64.089844 32.554688 -64.089844 L 2.960938 -64.089844 C 1.835938 -64.089844 1.835938 -62.558594 2.859375 -62.351562 C 6.226562 -61.84375 9.285156 -62.660156 9.285156 -57.25 L 9.285156 -6.734375 C 9.285156 -1.328125 6.226562 -2.144531 2.859375 -1.632812 C 1.835938 -1.429688 1.835938 0.101562 2.960938 0.101562 L 23.164062 0.101562 C 24.1875 0.101562 24.1875 -1.429688 23.269531 -1.632812 C 19.796875 -2.144531 16.839844 -1.328125 16.839844 -6.734375 L 16.839844 -57.453125 C 16.839844 -61.027344 18.980469 -61.742188 21.53125 -61.742188 L 21.226562 -61.84375 C 21.839844 -61.84375 22.65625 -61.84375 24.59375 -61.84375 C 41.230469 -61.84375 51.535156 -55.71875 51.535156 -42.65625 C 51.535156 -29.59375 39.699219 -22.757812 24.59375 -22.757812 C 22.960938 -22.757812 23.675781 -22.859375 22.144531 -23.0625 C 20.410156 -23.269531 20.410156 -20.921875 22.246094 -21.023438 C 35.410156 -20.511719 39.902344 0.917969 53.578125 0.917969 C 62.457031 0.917969 65.824219 -6.226562 65.925781 -13.367188 C 66.027344 -16.429688 66.128906 -22.554688 61.640625 -22.554688 Z M 61.640625 -22.554688 "/></g></g></g><g fill="#f9f7f3" fill-opacity="1"><g transform="translate(203.36355, 310.44923)"><g><path d="M 60.109375 -63.578125 C 60.109375 -63.984375 59.800781 -64.089844 59.394531 -64.089844 L 3.367188 -64.089844 C 2.960938 -64.089844 2.652344 -63.984375 2.652344 -63.578125 L 2.144531 -51.738281 C 2.042969 -50.820312 3.675781 -50.71875 3.878906 -51.636719 C 5.410156 -60.109375 5.203125 -61.742188 16.941406 -61.742188 L 23.0625 -61.742188 C 25.511719 -61.742188 27.554688 -61.027344 27.554688 -57.453125 L 27.554688 -6.734375 C 27.554688 -1.328125 24.59375 -2.144531 21.125 -1.632812 C 20.207031 -1.429688 20.207031 0.101562 21.328125 0.101562 L 41.433594 0.101562 C 42.554688 0.101562 42.554688 -1.429688 41.535156 -1.632812 C 38.167969 -2.144531 35.105469 -1.328125 35.105469 -6.734375 L 35.105469 -57.453125 C 35.105469 -61.027344 37.148438 -61.742188 39.699219 -61.742188 L 45.820312 -61.742188 C 57.558594 -61.742188 57.351562 -60.109375 58.882812 -51.636719 C 59.085938 -50.71875 60.71875 -50.820312 60.617188 -51.738281 Z M 60.109375 -63.578125 "/></g></g></g><g fill="#f9f7f3" fill-opacity="1"><g transform="translate(271.219125, 310.44923)"><g><path d="M 69.089844 -2.144531 C 65.617188 -2.753906 62.660156 -1.9375 62.660156 -7.246094 L 62.660156 -57.660156 C 62.660156 -63.066406 65.617188 -62.148438 69.089844 -62.761719 C 70.109375 -62.964844 70.007812 -64.496094 68.988281 -64.496094 L 48.882812 -64.496094 C 47.761719 -64.496094 47.761719 -62.964844 48.78125 -62.761719 C 52.148438 -62.148438 55.109375 -63.066406 55.109375 -57.660156 L 55.109375 -34.902344 L 16.738281 -34.902344 L 16.738281 -57.660156 C 16.738281 -63.066406 19.695312 -62.148438 23.164062 -62.761719 C 24.1875 -62.964844 24.085938 -64.496094 23.0625 -64.496094 L 2.960938 -64.496094 C 1.835938 -64.496094 1.835938 -62.964844 2.859375 -62.761719 C 6.226562 -62.148438 9.183594 -63.066406 9.183594 -57.660156 L 9.183594 -7.246094 C 9.183594 -1.9375 6.226562 -2.753906 2.859375 -2.144531 C 1.835938 -2.042969 1.835938 -0.511719 2.960938 -0.511719 L 23.0625 -0.511719 C 24.085938 -0.511719 24.1875 -2.042969 23.164062 -2.144531 C 19.695312 -2.753906 16.738281 -1.9375 16.738281 -7.246094 L 16.738281 -32.554688 L 55.109375 -32.554688 L 55.109375 -7.246094 C 55.109375 -1.9375 52.148438 -2.753906 48.78125 -2.144531 C 47.761719 -2.042969 47.761719 -0.511719 48.882812 -0.511719 L 68.988281 -0.511719 C 70.007812 -0.511719 70.109375 -2.042969 69.089844 -2.144531 Z M 69.089844 -2.144531 "/></g></g></g><g clip-path="url(#fe513ad52b)"><path fill="#ffb901" d="M 73.722656 119.476562 L 73.839844 119.480469 L 74.980469 118.347656 C 75.445312 87.550781 88.261719 59.8125 108.683594 39.835938 C 128.992188 19.972656 156.832031 7.800781 187.460938 8.015625 C 187.460938 8.015625 188.480469 8.027344 188.480469 8.027344 C 218.128906 8.203125 244.921875 20.335938 264.292969 39.84375 C 283.578125 59.261719 295.492188 86.003906 295.464844 115.515625 L 295.464844 115.851562 L 295.355469 122.113281 C 294.917969 149.03125 283.589844 173.183594 265.730469 190.617188 C 247.890625 208.039062 223.488281 218.777344 196.589844 218.570312 C 184.070312 218.515625 171.828125 215.945312 160.519531 211.171875 C 149.179688 206.382812 138.769531 199.390625 129.976562 190.433594 C 121.160156 181.453125 114.324219 170.890625 109.742188 159.429688 C 105.152344 147.933594 102.816406 135.535156 103.019531 122.914062 C 103.019531 122.914062 103.117188 116.628906 103.117188 116.628906 L 103.113281 116.632812 L 103.117188 116.546875 C 103.117188 116.484375 103.117188 116.363281 103.117188 116.179688 C 103.0625 93.828125 112.007812 73.535156 126.558594 58.761719 C 141.1875 43.902344 161.460938 34.613281 183.929688 34.316406 C 183.929688 34.316406 187.386719 34.277344 187.386719 34.277344 C 198.21875 34.15625 208.855469 36.191406 218.6875 40.207031 C 228.53125 44.21875 237.5625 50.214844 245.222656 57.886719 C 252.847656 65.585938 258.78125 74.648438 262.75 84.5 C 266.710938 94.339844 268.703125 104.960938 268.539062 115.773438 L 268.511719 116.828125 C 268.511719 116.828125 268.132812 126.035156 268.132812 126.035156 C 267.351562 144.601562 259.332031 161.21875 246.851562 173.1875 C 234.453125 185.078125 217.632812 192.363281 199.164062 192.363281 C 190.421875 192.367188 181.871094 190.585938 173.980469 187.246094 C 166.117188 183.917969 158.921875 179.015625 152.855469 172.757812 C 146.816406 166.523438 142.183594 159.1875 139.105469 151.253906 C 136.039062 143.339844 134.539062 134.824219 134.796875 126.171875 C 134.796875 126.171875 135.070312 116.953125 135.070312 116.953125 L 135.089844 115.8125 C 135.136719 101.332031 141.0625 88.257812 150.542969 78.75 C 160.019531 69.25 173.070312 63.289062 187.546875 63.203125 C 187.546875 63.203125 189.585938 63.191406 189.585938 63.191406 C 196.46875 63.132812 203.21875 64.453125 209.46875 67.007812 C 215.730469 69.566406 221.488281 73.351562 226.371094 78.21875 C 231.269531 83.097656 235.089844 88.847656 237.675781 95.113281 C 240.273438 101.390625 241.640625 108.171875 241.617188 115.101562 L 241.578125 116.738281 C 241.578125 116.738281 241.347656 122.109375 241.347656 122.109375 C 240.867188 133.316406 236.003906 143.335938 228.453125 150.542969 C 220.863281 157.78125 210.578125 162.195312 199.304688 162.148438 C 194.203125 162.125 189.214844 161.066406 184.621094 159.09375 C 180.015625 157.113281 175.796875 154.226562 172.261719 150.527344 C 168.714844 146.816406 165.996094 142.472656 164.21875 137.765625 C 162.4375 133.046875 161.59375 127.972656 161.808594 122.828125 C 161.808594 122.828125 162.027344 117.464844 162.027344 117.464844 C 162.027344 117.464844 162.070312 115.574219 162.070312 115.574219 C 162.070312 115.574219 162.070312 115.535156 162.070312 115.535156 C 162.078125 112.324219 162.714844 109.179688 163.925781 106.269531 C 165.140625 103.355469 166.917969 100.671875 169.203125 98.402344 C 171.496094 96.125 174.1875 94.34375 177.121094 93.140625 C 180.0625 91.933594 183.238281 91.296875 186.476562 91.308594 C 186.476562 91.308594 190.425781 91.324219 190.425781 91.324219 C 196.746094 91.347656 202.492188 93.878906 206.691406 97.984375 C 210.921875 102.113281 213.605469 107.828125 213.78125 114.183594 L 213.703125 118.527344 C 213.703125 118.527344 213.578125 120.507812 213.578125 120.507812 C 213.328125 124.386719 211.625 127.851562 209.003906 130.367188 C 206.367188 132.898438 202.820312 134.480469 198.910156 134.570312 C 198.910156 134.570312 198.90625 134.570312 198.90625 134.570312 C 197.082031 134.613281 195.289062 134.269531 193.648438 133.578125 C 191.996094 132.882812 190.488281 131.847656 189.238281 130.503906 C 187.984375 129.164062 187.046875 127.585938 186.464844 125.886719 C 185.882812 124.179688 185.652344 122.355469 185.820312 120.519531 C 185.820312 120.519531 186.207031 116.328125 186.207031 116.328125 C 186.273438 115.636719 185.769531 115.019531 185.078125 114.953125 C 184.386719 114.882812 183.769531 115.390625 183.703125 116.082031 L 183.253906 120.261719 C 183.019531 122.46875 183.261719 124.667969 183.933594 126.730469 C 184.609375 128.800781 185.71875 130.722656 187.210938 132.371094 C 188.710938 134.023438 190.53125 135.3125 192.527344 136.1875 C 194.53125 137.0625 196.71875 137.515625 198.953125 137.496094 C 203.648438 137.453125 207.929688 135.613281 211.136719 132.621094 C 214.355469 129.613281 216.476562 125.441406 216.84375 120.738281 C 216.84375 120.738281 217 118.765625 217 118.765625 L 217.152344 114.113281 C 217.054688 106.808594 214.050781 100.207031 209.261719 95.390625 C 204.445312 90.550781 197.8125 87.53125 190.46875 87.398438 C 190.46875 87.398438 186.519531 87.324219 186.519531 87.324219 C 182.742188 87.253906 179.027344 87.945312 175.578125 89.304688 C 172.117188 90.667969 168.929688 92.710938 166.207031 95.34375 C 163.472656 97.984375 161.328125 101.121094 159.847656 104.539062 C 158.359375 107.96875 157.550781 111.6875 157.492188 115.496094 C 157.492188 115.496094 157.488281 115.535156 157.488281 115.535156 C 157.488281 115.535156 157.429688 117.242188 157.429688 117.242188 C 157.429688 117.242188 157.128906 122.601562 157.128906 122.601562 C 156.804688 128.390625 157.675781 134.121094 159.605469 139.46875 C 161.542969 144.828125 164.554688 149.800781 168.515625 154.058594 C 172.488281 158.332031 177.246094 161.695312 182.464844 164.019531 C 187.699219 166.351562 193.402344 167.621094 199.246094 167.714844 C 212.070312 167.917969 223.820312 163.015625 232.546875 154.886719 C 241.3125 146.71875 247.011719 135.277344 247.714844 122.417969 C 247.714844 122.417969 248.011719 117.050781 248.011719 117.050781 L 248.074219 115.164062 C 248.199219 107.355469 246.746094 99.6875 243.898438 92.578125 C 241.046875 85.457031 236.78125 78.902344 231.292969 73.324219 C 225.789062 67.746094 219.28125 63.390625 212.191406 60.417969 C 205.09375 57.449219 197.40625 55.878906 189.554688 55.875 C 189.554688 55.875 187.519531 55.875 187.519531 55.875 C 171 55.902344 156.023438 62.589844 145.21875 73.445312 C 134.421875 84.296875 127.804688 99.300781 127.859375 115.8125 L 127.855469 116.785156 C 127.855469 116.785156 127.691406 126.003906 127.691406 126.003906 C 127.523438 135.597656 129.285156 145.023438 132.808594 153.746094 C 136.324219 162.441406 141.578125 170.4375 148.347656 177.203125 C 155.09375 183.945312 163.058594 189.183594 171.726562 192.691406 C 180.367188 196.1875 189.699219 197.972656 199.210938 197.816406 C 219.015625 197.492188 236.941406 189.425781 250.035156 176.453125 C 263.046875 163.558594 271.292969 145.839844 271.796875 126.160156 C 271.796875 126.160156 272.035156 116.949219 272.035156 116.949219 L 272.054688 115.804688 C 272.085938 104.546875 269.851562 93.527344 265.628906 83.324219 C 261.417969 73.144531 255.226562 63.78125 247.261719 55.851562 C 239.335938 47.898438 229.96875 41.722656 219.796875 37.515625 C 209.609375 33.300781 198.605469 31.054688 187.367188 31.078125 C 187.367188 31.078125 183.910156 31.082031 183.910156 31.082031 C 160.433594 31.085938 139.164062 40.570312 123.671875 55.878906 C 108.097656 71.265625 98.375 92.558594 98.085938 116.152344 L 98.082031 116.519531 L 97.890625 122.792969 C 97.488281 136.136719 99.777344 149.273438 104.457031 161.496094 C 109.152344 173.753906 116.269531 185.074219 125.507812 194.757812 C 134.773438 204.46875 145.789062 212.117188 157.847656 217.386719 C 169.9375 222.664062 183.070312 225.535156 196.519531 225.734375 C 225.433594 226.066406 251.804688 214.714844 270.949219 195.953125 C 290.089844 177.207031 301.980469 151.097656 302.242188 122.199219 C 302.242188 122.199219 302.292969 115.925781 302.292969 115.925781 L 302.289062 115.925781 L 302.292969 115.824219 C 302.292969 115.773438 302.289062 115.65625 302.289062 115.484375 C 301.964844 84.230469 289.082031 56.023438 268.421875 35.699219 C 247.855469 15.460938 219.597656 3.023438 188.480469 3.210938 C 188.480469 3.210938 187.460938 3.21875 187.460938 3.21875 C 155.6875 3.445312 126.960938 16.417969 106.1875 37.320312 C 85.527344 58.109375 72.726562 86.726562 72.699219 118.328125 L 72.699219 118.339844 C 72.699219 118.929688 73.148438 119.414062 73.722656 119.476562 Z M 73.722656 119.476562 " fill-opacity="1" fill-rule="evenodd"/></g><g fill="#f9f7f3" fill-opacity="1"><g transform="translate(37.363172, 370.107118)"><g><path d="M 19.308594 -26.191406 C 10.113281 -28.15625 8.285156 -31.457031 8.285156 -34.96875 C 8.285156 -41.007812 14.042969 -43.394531 20.222656 -43.394531 C 22.75 -43.394531 25.277344 -43.042969 27.527344 -42.339844 C 31.878906 -40.65625 31.035156 -38.410156 32.160156 -36.511719 C 32.722656 -35.53125 33.5625 -35.179688 34.265625 -35.179688 C 35.953125 -35.179688 37.285156 -37.214844 35.320312 -39.53125 C 34.6875 -40.304688 33.632812 -41.078125 32.441406 -41.851562 L 32.300781 -41.851562 C 31.105469 -42.550781 29.984375 -43.042969 29 -43.324219 C 26.191406 -44.308594 23.03125 -44.871094 19.871094 -44.871094 C 11.515625 -44.871094 3.371094 -41.21875 3.371094 -32.511719 C 3.371094 -22.679688 15.800781 -21.628906 24.855469 -19.449219 C 41.21875 -15.589844 34.054688 -1.054688 20.433594 -0.703125 C 15.027344 -0.5625 7.722656 -2.808594 4.003906 -8.074219 C 3.582031 -8.636719 3.160156 -8.847656 2.738281 -8.847656 C 1.683594 -8.847656 0.84375 -7.511719 2.105469 -6.25 C 7.933594 -0.914062 13.691406 0.84375 21.417969 0.84375 C 30.683594 0.84375 39.601562 -2.949219 39.601562 -12.148438 C 39.601562 -22.46875 28.226562 -24.367188 19.308594 -26.191406 Z M 19.308594 -26.191406 "/></g></g></g><g fill="#f9f7f3" fill-opacity="1"><g transform="translate(81.880078, 370.107118)"><g><path d="M 41.429688 -8.636719 C 38.902344 -4.984375 35.320312 -1.125 25.628906 -1.125 C 1.054688 -1.125 1.613281 -43.535156 25.628906 -43.535156 C 27.945312 -43.535156 30.894531 -43.324219 33.144531 -42.550781 C 37.707031 -40.445312 36.933594 -38.128906 37.847656 -36.304688 C 38.621094 -34.828125 39.742188 -34.265625 40.726562 -34.265625 C 42.761719 -34.265625 44.519531 -36.792969 42.269531 -39.460938 C 41.007812 -40.9375 37.074219 -43.324219 35.109375 -43.746094 C 32.371094 -44.730469 29.210938 -45.359375 25.628906 -45.359375 C -6.601562 -45.359375 -6.601562 0.632812 25.628906 0.632812 C 34.125 0.632812 39.601562 -2.597656 43.605469 -7.300781 C 44.589844 -8.425781 43.816406 -9.550781 42.832031 -9.550781 C 42.410156 -9.550781 41.851562 -9.269531 41.429688 -8.636719 Z M 41.429688 -8.636719 "/></g></g></g><g fill="#f9f7f3" fill-opacity="1"><g transform="translate(130.890742, 370.107118)"><g><path d="M 15.941406 -1.472656 C 13.550781 -1.894531 11.515625 -1.335938 11.515625 -4.984375 L 11.515625 -39.671875 C 11.515625 -43.394531 13.550781 -42.761719 15.941406 -43.183594 C 16.640625 -43.324219 16.570312 -44.378906 15.871094 -44.378906 L 2.035156 -44.378906 C 1.265625 -44.378906 1.265625 -43.324219 1.964844 -43.183594 C 4.285156 -42.761719 6.320312 -43.394531 6.320312 -39.671875 L 6.320312 -4.984375 C 6.320312 -1.335938 4.285156 -1.894531 1.964844 -1.472656 C 1.265625 -1.40625 1.265625 -0.351562 2.035156 -0.351562 L 15.871094 -0.351562 C 16.570312 -0.351562 16.640625 -1.40625 15.941406 -1.472656 Z M 15.941406 -1.472656 "/></g></g></g><g fill="#f9f7f3" fill-opacity="1"><g transform="translate(152.306918, 370.107118)"><g><path d="M 37.425781 -8.074219 C 36.371094 -3.511719 35.390625 -1.894531 28.085938 -1.894531 L 14.113281 -1.894531 C 12.640625 -2.035156 11.515625 -2.738281 11.515625 -4.84375 L 11.515625 -20.574219 L 25.488281 -20.574219 C 29.84375 -20.574219 30.824219 -18.328125 30.964844 -16.148438 C 31.035156 -15.449219 32.160156 -15.519531 32.160156 -16.21875 L 32.160156 -26.472656 C 32.160156 -27.246094 31.035156 -27.246094 30.964844 -26.542969 C 30.824219 -24.4375 29.84375 -22.117188 25.488281 -22.117188 L 11.515625 -22.117188 L 11.515625 -39.8125 C 11.515625 -42.269531 12.921875 -42.761719 14.675781 -42.761719 L 25.699219 -42.761719 C 33.003906 -42.761719 34.757812 -41.148438 35.8125 -36.582031 C 35.953125 -35.953125 37.074219 -36.09375 37.074219 -36.652344 L 36.652344 -44.027344 C 36.652344 -44.238281 36.441406 -44.378906 36.164062 -44.378906 L 2.035156 -44.378906 C 1.265625 -44.378906 1.265625 -43.324219 1.964844 -43.183594 C 4.285156 -42.761719 6.320312 -43.394531 6.320312 -39.671875 L 6.320312 -4.984375 C 6.320312 -1.335938 4.285156 -1.894531 1.964844 -1.472656 C 1.265625 -1.40625 1.265625 -0.351562 2.035156 -0.351562 L 37.777344 -0.351562 C 37.988281 -0.351562 38.269531 -0.421875 38.269531 -0.703125 L 38.621094 -8.003906 C 38.621094 -8.636719 37.566406 -8.707031 37.425781 -8.074219 Z M 37.425781 -8.074219 "/></g></g></g><g fill="#f9f7f3" fill-opacity="1"><g transform="translate(195.840821, 370.107118)"><g><path d="M 47.1875 -44.097656 L 35.039062 -44.097656 C 34.335938 -44.097656 34.265625 -43.042969 34.96875 -42.902344 C 37.285156 -42.550781 39.953125 -43.042969 40.164062 -39.742188 C 40.164062 -28.929688 40.164062 -18.328125 40.164062 -7.441406 C 40.164062 -6.53125 39.53125 -6.25 38.972656 -7.09375 C 30.542969 -18.820312 22.117188 -30.542969 13.761719 -42.199219 C 12.78125 -43.535156 12.148438 -44.097656 10.042969 -44.097656 L 2.808594 -44.097656 C 2.105469 -44.097656 2.035156 -43.042969 2.738281 -42.902344 C 5.054688 -42.550781 7.023438 -43.042969 7.164062 -39.742188 L 6.8125 -4.84375 C 6.8125 -1.054688 4.355469 -1.472656 1.964844 -1.125 C 1.265625 -0.984375 1.265625 0.0703125 2.035156 0.0703125 L 14.183594 0.0703125 C 14.886719 0.0703125 14.957031 -0.984375 14.253906 -1.125 C 11.867188 -1.472656 9.410156 -0.984375 9.410156 -4.632812 L 9.058594 -38.761719 L 36.09375 -1.195312 C 36.722656 -0.351562 37.285156 0.0703125 38.550781 0.0703125 C 39.390625 0.0703125 40.234375 0.0703125 41.007812 0.0703125 C 41.710938 0.0703125 41.992188 -0.28125 41.992188 -0.984375 L 42.0625 -39.390625 C 42.0625 -43.113281 44.871094 -42.550781 47.257812 -42.902344 C 47.957031 -43.042969 47.957031 -44.097656 47.1875 -44.097656 Z M 47.1875 -44.097656 "/></g></g></g><g fill="#f9f7f3" fill-opacity="1"><g transform="translate(248.572872, 370.107118)"><g><path d="M 41.429688 -8.636719 C 38.902344 -4.984375 35.320312 -1.125 25.628906 -1.125 C 1.054688 -1.125 1.613281 -43.535156 25.628906 -43.535156 C 27.945312 -43.535156 30.894531 -43.324219 33.144531 -42.550781 C 37.707031 -40.445312 36.933594 -38.128906 37.847656 -36.304688 C 38.621094 -34.828125 39.742188 -34.265625 40.726562 -34.265625 C 42.761719 -34.265625 44.519531 -36.792969 42.269531 -39.460938 C 41.007812 -40.9375 37.074219 -43.324219 35.109375 -43.746094 C 32.371094 -44.730469 29.210938 -45.359375 25.628906 -45.359375 C -6.601562 -45.359375 -6.601562 0.632812 25.628906 0.632812 C 34.125 0.632812 39.601562 -2.597656 43.605469 -7.300781 C 44.589844 -8.425781 43.816406 -9.550781 42.832031 -9.550781 C 42.410156 -9.550781 41.851562 -9.269531 41.429688 -8.636719 Z M 41.429688 -8.636719 "/></g></g></g><g fill="#f9f7f3" fill-opacity="1"><g transform="translate(297.583539, 370.107118)"><g><path d="M 37.425781 -8.074219 C 36.371094 -3.511719 35.390625 -1.894531 28.085938 -1.894531 L 14.113281 -1.894531 C 12.640625 -2.035156 11.515625 -2.738281 11.515625 -4.84375 L 11.515625 -20.574219 L 25.488281 -20.574219 C 29.84375 -20.574219 30.824219 -18.328125 30.964844 -16.148438 C 31.035156 -15.449219 32.160156 -15.519531 32.160156 -16.21875 L 32.160156 -26.472656 C 32.160156 -27.246094 31.035156 -27.246094 30.964844 -26.542969 C 30.824219 -24.4375 29.84375 -22.117188 25.488281 -22.117188 L 11.515625 -22.117188 L 11.515625 -39.8125 C 11.515625 -42.269531 12.921875 -42.761719 14.675781 -42.761719 L 25.699219 -42.761719 C 33.003906 -42.761719 34.757812 -41.148438 35.8125 -36.582031 C 35.953125 -35.953125 37.074219 -36.09375 37.074219 -36.652344 L 36.652344 -44.027344 C 36.652344 -44.238281 36.441406 -44.378906 36.164062 -44.378906 L 2.035156 -44.378906 C 1.265625 -44.378906 1.265625 -43.324219 1.964844 -43.183594 C 4.285156 -42.761719 6.320312 -43.394531 6.320312 -39.671875 L 6.320312 -4.984375 C 6.320312 -1.335938 4.285156 -1.894531 1.964844 -1.472656 C 1.265625 -1.40625 1.265625 -0.351562 2.035156 -0.351562 L 37.777344 -0.351562 C 37.988281 -0.351562 38.269531 -0.421875 38.269531 -0.703125 L 38.621094 -8.003906 C 38.621094 -8.636719 37.566406 -8.707031 37.425781 -8.074219 Z M 37.425781 -8.074219 "/></g></g></g></svg>