<svg xmlns="http://www.w3.org/2000/svg" xmlns:xlink="http://www.w3.org/1999/xlink" width="500" zoomAndPan="magnify" viewBox="0 0 375 187.499995" height="250" preserveAspectRatio="xMidYMid meet" version="1.0"><defs><g/><clipPath id="d017c3cef8"><path d="M 0.5 0 L 374.5 0 L 374.5 187 L 0.5 187 Z M 0.5 0 " clip-rule="nonzero"/></clipPath><clipPath id="6f77c11a6b"><path d="M 281 0 C 332.640625 0 374.5 41.863281 374.5 93.5 C 374.5 145.140625 332.640625 187 281 187 L 94 187 C 42.359375 187 0.5 145.140625 0.5 93.5 C 0.5 41.863281 42.359375 0 94 0 Z M 281 0 " clip-rule="nonzero"/></clipPath></defs><g clip-path="url(#d017c3cef8)"><g clip-path="url(#6f77c11a6b)"><path fill="#0097b2" d="M 0.5 0 L 374.5 0 L 374.5 187 L 0.5 187 Z M 0.5 0 " fill-opacity="1" fill-rule="nonzero"/></g></g><g fill="#f9f7f3" fill-opacity="1"><g transform="translate(118.360149, 81.532574)"><g><path d="M 19.148438 -22.339844 C 19.148438 -19.425781 16.792969 -17.074219 13.882812 -17.074219 L 7.976562 -17.074219 L 7.976562 -27.605469 L 13.882812 -27.605469 C 16.792969 -27.605469 19.148438 -25.25 19.148438 -22.339844 Z M 23.933594 -22.339844 C 23.933594 -27.207031 19.625 -31.914062 14.757812 -31.914062 L 3.191406 -31.914062 L 3.191406 0 L 7.976562 0 L 7.976562 -12.765625 L 14.757812 -12.765625 C 19.625 -12.765625 23.933594 -17.472656 23.933594 -22.339844 Z M 23.933594 -22.339844 "/></g></g></g><g fill="#f9f7f3" fill-opacity="1"><g transform="translate(152.666036, 81.532574)"><g><path d="M 27.125 -15.957031 C 27.125 -9.574219 22.5 -3.910156 16.753906 -3.910156 C 11.011719 -3.910156 6.382812 -9.574219 6.382812 -15.957031 C 6.382812 -22.339844 11.011719 -28.003906 16.753906 -28.003906 C 22.5 -28.003906 27.125 -22.339844 27.125 -15.957031 Z M 31.914062 -15.957031 C 31.914062 -25.011719 25.132812 -32.3125 16.753906 -32.3125 C 8.378906 -32.3125 1.59375 -25.011719 1.59375 -15.957031 C 1.59375 -6.902344 8.378906 0.398438 16.753906 0.398438 C 25.132812 0.398438 31.914062 -6.902344 31.914062 -15.957031 Z M 31.914062 -15.957031 "/></g></g></g><g fill="#f9f7f3" fill-opacity="1"><g transform="translate(194.15206, 81.532574)"><g><path d="M 23.375 -9.015625 C 23.375 -13.402344 21.101562 -16.835938 16.515625 -18.429688 L 10.730469 -20.464844 C 8.9375 -21.101562 7.621094 -22.417969 7.621094 -24.414062 C 7.621094 -27.007812 10.453125 -28.164062 12.84375 -28.164062 C 15.039062 -28.164062 16.476562 -27.484375 16.914062 -25.96875 L 20.742188 -27.085938 C 20.144531 -30.398438 16.632812 -32.351562 12.84375 -32.351562 C 8.457031 -32.351562 3.03125 -29.597656 3.03125 -24.414062 C 3.03125 -20.425781 5.625 -17.59375 9.054688 -16.394531 L 14.757812 -14.402344 C 17.511719 -13.441406 18.589844 -11.808594 18.589844 -9.015625 C 18.589844 -6.023438 15.71875 -3.910156 12.527344 -3.910156 C 8.9375 -3.910156 5.902344 -6.34375 5.464844 -8.695312 L 1.59375 -7.621094 C 2.234375 -3.46875 6.941406 0.398438 12.527344 0.398438 C 18.550781 0.398438 23.375 -4.070312 23.375 -9.015625 Z M 23.375 -9.015625 "/></g></g></g><g fill="#f9f7f3" fill-opacity="1"><g transform="translate(227.899492, 81.532574)"><g><path d="M 27.125 -31.914062 L 1.59375 -31.914062 L 1.59375 -27.605469 L 11.96875 -27.605469 L 11.96875 0 L 16.753906 0 L 16.753906 -27.605469 L 27.125 -27.605469 Z M 27.125 -31.914062 "/></g></g></g><g fill="#f9f7f3" fill-opacity="1"><g transform="translate(81.579327, 128.656906)"><g><path d="M 19.148438 -22.339844 C 19.148438 -19.425781 16.792969 -17.074219 13.882812 -17.074219 L 7.976562 -17.074219 L 7.976562 -27.605469 L 13.882812 -27.605469 C 16.792969 -27.605469 19.148438 -25.25 19.148438 -22.339844 Z M 23.933594 -22.339844 C 23.933594 -27.207031 19.625 -31.914062 14.757812 -31.914062 L 3.191406 -31.914062 L 3.191406 0 L 7.976562 0 L 7.976562 -12.765625 L 14.757812 -12.765625 C 19.625 -12.765625 23.933594 -17.472656 23.933594 -22.339844 Z M 23.933594 -22.339844 "/></g></g></g><g fill="#f9f7f3" fill-opacity="1"><g transform="translate(115.885215, 128.656906)"><g><path d="M 8.9375 -11.488281 L 12.804688 -22.578125 L 16.59375 -11.488281 Z M 14.359375 -31.914062 L 11.167969 -31.914062 L 0 0 L 4.988281 0 L 7.5 -7.179688 L 18.03125 -7.179688 L 20.542969 0 L 25.53125 0 Z M 14.359375 -31.914062 "/></g></g></g><g fill="#f9f7f3" fill-opacity="1"><g transform="translate(149.39331, 128.656906)"><g><path d="M 19.148438 -23.136719 C 19.148438 -20.664062 17.152344 -18.667969 14.679688 -18.667969 L 7.976562 -18.667969 L 7.976562 -27.605469 L 14.679688 -27.605469 C 17.152344 -27.605469 19.148438 -25.609375 19.148438 -23.136719 Z M 18.828125 -15.160156 C 21.859375 -16.554688 23.933594 -19.585938 23.933594 -23.136719 C 23.933594 -28.003906 19.625 -31.914062 14.757812 -31.914062 L 3.191406 -31.914062 L 3.191406 0 L 7.976562 0 L 7.976562 -14.359375 L 13.960938 -14.359375 L 21.140625 0 L 26.328125 0 Z M 18.828125 -15.160156 "/></g></g></g><g fill="#f9f7f3" fill-opacity="1"><g transform="translate(186.092587, 128.656906)"><g><path d="M 27.125 -31.914062 L 1.59375 -31.914062 L 1.59375 -27.605469 L 11.96875 -27.605469 L 11.96875 0 L 16.753906 0 L 16.753906 -27.605469 L 27.125 -27.605469 Z M 27.125 -31.914062 "/></g></g></g><g fill="#f9f7f3" fill-opacity="1"><g transform="translate(222.791858, 128.656906)"><g><path d="M 26.328125 -31.914062 L 21.542969 -31.914062 L 21.542969 -10.691406 C 21.542969 -6.941406 18.507812 -3.910156 14.757812 -3.910156 C 11.011719 -3.910156 7.976562 -6.941406 7.976562 -10.691406 L 7.976562 -31.914062 L 3.191406 -31.914062 L 3.191406 -11.167969 C 3.191406 -4.785156 8.378906 0.398438 14.757812 0.398438 C 21.140625 0.398438 26.328125 -4.785156 26.328125 -11.167969 Z M 26.328125 -31.914062 "/></g></g></g><g fill="#f9f7f3" fill-opacity="1"><g transform="translate(260.288921, 128.656906)"><g><path d="M 29.917969 -31.914062 L 26.726562 -31.914062 L 16.554688 -14.757812 L 6.382812 -31.914062 L 3.191406 -31.914062 L 3.191406 0 L 7.976562 0 L 7.976562 -20.265625 L 16.554688 -5.902344 L 25.132812 -20.265625 L 25.132812 0 L 29.917969 0 Z M 29.917969 -31.914062 "/></g></g></g></svg>