<svg xmlns="http://www.w3.org/2000/svg" xmlns:xlink="http://www.w3.org/1999/xlink" width="500" zoomAndPan="magnify" viewBox="0 0 375 187.499995" height="250" preserveAspectRatio="xMidYMid meet" version="1.0"><defs><g/><clipPath id="e0023ddae7"><path d="M 0.5 0 L 374.5 0 L 374.5 187 L 0.5 187 Z M 0.5 0 " clip-rule="nonzero"/></clipPath><clipPath id="c4c2089ed5"><path d="M 281 0 C 332.640625 0 374.5 41.863281 374.5 93.5 C 374.5 145.140625 332.640625 187 281 187 L 94 187 C 42.359375 187 0.5 145.140625 0.5 93.5 C 0.5 41.863281 42.359375 0 94 0 Z M 281 0 " clip-rule="nonzero"/></clipPath></defs><g clip-path="url(#e0023ddae7)"><g clip-path="url(#c4c2089ed5)"><path fill="#0097b2" d="M 0.5 0 L 374.5 0 L 374.5 187 L 0.5 187 Z M 0.5 0 " fill-opacity="1" fill-rule="nonzero"/></g></g><g fill="#f9f7f3" fill-opacity="1"><g transform="translate(53.459004, 81.532574)"><g><path d="M 19.148438 -22.339844 C 19.148438 -19.425781 16.792969 -17.074219 13.882812 -17.074219 L 7.976562 -17.074219 L 7.976562 -27.605469 L 13.882812 -27.605469 C 16.792969 -27.605469 19.148438 -25.25 19.148438 -22.339844 Z M 23.933594 -22.339844 C 23.933594 -27.207031 19.625 -31.914062 14.757812 -31.914062 L 3.191406 -31.914062 L 3.191406 0 L 7.976562 0 L 7.976562 -12.765625 L 14.757812 -12.765625 C 19.625 -12.765625 23.933594 -17.472656 23.933594 -22.339844 Z M 23.933594 -22.339844 "/></g></g></g><g fill="#f9f7f3" fill-opacity="1"><g transform="translate(87.764892, 81.532574)"><g><path d="M 19.148438 -23.136719 C 19.148438 -20.664062 17.152344 -18.667969 14.679688 -18.667969 L 7.976562 -18.667969 L 7.976562 -27.605469 L 14.679688 -27.605469 C 17.152344 -27.605469 19.148438 -25.609375 19.148438 -23.136719 Z M 18.828125 -15.160156 C 21.859375 -16.554688 23.933594 -19.585938 23.933594 -23.136719 C 23.933594 -28.003906 19.625 -31.914062 14.757812 -31.914062 L 3.191406 -31.914062 L 3.191406 0 L 7.976562 0 L 7.976562 -14.359375 L 13.960938 -14.359375 L 21.140625 0 L 26.328125 0 Z M 18.828125 -15.160156 "/></g></g></g><g fill="#f9f7f3" fill-opacity="1"><g transform="translate(124.464166, 81.532574)"><g><path d="M 22.339844 -4.308594 L 7.976562 -4.308594 L 7.976562 -13.800781 L 19.148438 -13.800781 L 19.148438 -18.109375 L 7.976562 -18.109375 L 7.976562 -27.605469 L 22.339844 -27.605469 L 22.339844 -31.914062 L 3.191406 -31.914062 L 3.191406 0 L 22.339844 0 Z M 22.339844 -4.308594 "/></g></g></g><g fill="#f9f7f3" fill-opacity="1"><g transform="translate(157.174473, 81.532574)"><g><path d="M 27.125 -31.914062 L 22.339844 -31.914062 L 22.339844 -9.972656 L 6.382812 -31.914062 L 3.191406 -31.914062 L 3.191406 0 L 7.976562 0 L 7.976562 -21.941406 L 23.933594 0 L 27.125 0 Z M 27.125 -31.914062 "/></g></g></g><g fill="#f9f7f3" fill-opacity="1"><g transform="translate(195.469327, 81.532574)"><g><path d="M 8.9375 -11.488281 L 12.804688 -22.578125 L 16.59375 -11.488281 Z M 14.359375 -31.914062 L 11.167969 -31.914062 L 0 0 L 4.988281 0 L 7.5 -7.179688 L 18.03125 -7.179688 L 20.542969 0 L 25.53125 0 Z M 14.359375 -31.914062 "/></g></g></g><g fill="#f9f7f3" fill-opacity="1"><g transform="translate(228.97742, 81.532574)"><g><path d="M 27.125 -31.914062 L 1.59375 -31.914062 L 1.59375 -27.605469 L 11.96875 -27.605469 L 11.96875 0 L 16.753906 0 L 16.753906 -27.605469 L 27.125 -27.605469 Z M 27.125 -31.914062 "/></g></g></g><g fill="#f9f7f3" fill-opacity="1"><g transform="translate(265.676691, 81.532574)"><g><path d="M 8.9375 -11.488281 L 12.804688 -22.578125 L 16.59375 -11.488281 Z M 14.359375 -31.914062 L 11.167969 -31.914062 L 0 0 L 4.988281 0 L 7.5 -7.179688 L 18.03125 -7.179688 L 20.542969 0 L 25.53125 0 Z M 14.359375 -31.914062 "/></g></g></g><g fill="#f9f7f3" fill-opacity="1"><g transform="translate(299.184783, 81.532574)"><g><path d="M 20.742188 -4.308594 L 7.976562 -4.308594 L 7.976562 -31.914062 L 3.191406 -31.914062 L 3.191406 0 L 20.742188 0 Z M 20.742188 -4.308594 "/></g></g></g><g fill="#f9f7f3" fill-opacity="1"><g transform="translate(34.116055, 128.656906)"><g><path d="M 22.339844 -4.308594 L 7.976562 -4.308594 L 7.976562 -13.800781 L 19.148438 -13.800781 L 19.148438 -18.109375 L 7.976562 -18.109375 L 7.976562 -27.605469 L 22.339844 -27.605469 L 22.339844 -31.914062 L 3.191406 -31.914062 L 3.191406 0 L 22.339844 0 Z M 22.339844 -4.308594 "/></g></g></g><g fill="#f9f7f3" fill-opacity="1"><g transform="translate(66.826359, 128.656906)"><g><path d="M 22.339844 -15.957031 C 22.339844 -9.574219 17.152344 -4.308594 11.167969 -4.308594 L 7.976562 -4.308594 L 7.976562 -27.605469 L 10.769531 -27.605469 C 17.152344 -27.605469 22.339844 -22.339844 22.339844 -15.957031 Z M 27.125 -15.957031 C 27.125 -24.773438 19.585938 -31.914062 10.769531 -31.914062 L 3.191406 -31.914062 L 3.191406 0 L 11.167969 0 C 19.984375 0 27.125 -7.140625 27.125 -15.957031 Z M 27.125 -15.957031 "/></g></g></g><g fill="#f9f7f3" fill-opacity="1"><g transform="translate(103.525633, 128.656906)"><g><path d="M 26.328125 -31.914062 L 21.542969 -31.914062 L 21.542969 -10.691406 C 21.542969 -6.941406 18.507812 -3.910156 14.757812 -3.910156 C 11.011719 -3.910156 7.976562 -6.941406 7.976562 -10.691406 L 7.976562 -31.914062 L 3.191406 -31.914062 L 3.191406 -11.167969 C 3.191406 -4.785156 8.378906 0.398438 14.757812 0.398438 C 21.140625 0.398438 26.328125 -4.785156 26.328125 -11.167969 Z M 26.328125 -31.914062 "/></g></g></g><g fill="#f9f7f3" fill-opacity="1"><g transform="translate(141.022701, 128.656906)"><g><path d="M 25.050781 -6.34375 C 22.976562 -4.828125 20.183594 -3.910156 17.550781 -3.910156 C 11.570312 -3.910156 6.382812 -9.335938 6.382812 -15.957031 C 6.382812 -22.339844 11.410156 -28.003906 17.152344 -28.003906 C 19.785156 -28.003906 22.578125 -27.085938 24.652344 -25.570312 L 27.125 -28.722656 C 24.414062 -30.957031 20.941406 -32.3125 17.152344 -32.3125 C 8.335938 -32.3125 1.59375 -25.011719 1.59375 -15.957031 C 1.59375 -6.902344 8.734375 0.398438 17.550781 0.398438 C 21.339844 0.398438 24.8125 -0.957031 27.523438 -3.191406 Z M 25.050781 -6.34375 "/></g></g></g><g fill="#f9f7f3" fill-opacity="1"><g transform="translate(178.120868, 128.656906)"><g><path d="M 8.9375 -11.488281 L 12.804688 -22.578125 L 16.59375 -11.488281 Z M 14.359375 -31.914062 L 11.167969 -31.914062 L 0 0 L 4.988281 0 L 7.5 -7.179688 L 18.03125 -7.179688 L 20.542969 0 L 25.53125 0 Z M 14.359375 -31.914062 "/></g></g></g><g fill="#f9f7f3" fill-opacity="1"><g transform="translate(211.628961, 128.656906)"><g><path d="M 27.125 -31.914062 L 1.59375 -31.914062 L 1.59375 -27.605469 L 11.96875 -27.605469 L 11.96875 0 L 16.753906 0 L 16.753906 -27.605469 L 27.125 -27.605469 Z M 27.125 -31.914062 "/></g></g></g><g fill="#f9f7f3" fill-opacity="1"><g transform="translate(248.328231, 128.656906)"><g><path d="M 8.777344 -31.914062 L 3.988281 -31.914062 L 3.988281 0 L 8.777344 0 Z M 8.777344 -31.914062 "/></g></g></g><g fill="#f9f7f3" fill-opacity="1"><g transform="translate(269.071635, 128.656906)"><g><path d="M 27.125 -15.957031 C 27.125 -9.574219 22.5 -3.910156 16.753906 -3.910156 C 11.011719 -3.910156 6.382812 -9.574219 6.382812 -15.957031 C 6.382812 -22.339844 11.011719 -28.003906 16.753906 -28.003906 C 22.5 -28.003906 27.125 -22.339844 27.125 -15.957031 Z M 31.914062 -15.957031 C 31.914062 -25.011719 25.132812 -32.3125 16.753906 -32.3125 C 8.378906 -32.3125 1.59375 -25.011719 1.59375 -15.957031 C 1.59375 -6.902344 8.378906 0.398438 16.753906 0.398438 C 25.132812 0.398438 31.914062 -6.902344 31.914062 -15.957031 Z M 31.914062 -15.957031 "/></g></g></g><g fill="#f9f7f3" fill-opacity="1"><g transform="translate(310.557667, 128.656906)"><g><path d="M 27.125 -31.914062 L 22.339844 -31.914062 L 22.339844 -9.972656 L 6.382812 -31.914062 L 3.191406 -31.914062 L 3.191406 0 L 7.976562 0 L 7.976562 -21.941406 L 23.933594 0 L 27.125 0 Z M 27.125 -31.914062 "/></g></g></g></svg>